<?xml version="1.0" encoding="utf-8"?>
<!-- Generator: Adobe Illustrator 22.0.0, SVG Export Plug-In . SVG Version: 6.00 Build 0)  -->
<svg version="1.1" id="Layer_1" xmlns="http://www.w3.org/2000/svg" xmlns:xlink="http://www.w3.org/1999/xlink" x="0px" y="0px"
	 viewBox="0 0 170 182" style="enable-background:new 0 0 170 182;" xml:space="preserve">
<style type="text/css">
	.st0{fill:#FFFFFF;stroke:#E8E8E8;stroke-width:2;stroke-miterlimit:10;}
	.st1{fill:#08C299;}
</style>
<title>logo</title>
<path class="st0" d="M39.2,170.9C20.3,170.9,5,156.6,5,139V42.9C5,25.3,20.3,11,39.2,11h91.7c18.8,0,34.2,14.3,34.2,31.9v96.2
	c0,17.6-15.3,31.9-34.2,31.9L39.2,170.9L39.2,170.9z"/>
<path class="st1" d="M97.8,125.3l9.8,7.5v11.7H88v-11.7L97.8,125.3z M39.6,62.8v81.8h8.6v-43.1H63v-7.1H48v-7.1H63v-7.1H48v-8.7
	h32.2v16.7l8.6-6.6V62.8H39.6z M65.3,108.6v35.9h8.6v-31.7l24-18.4l24,18.4v31.7h8.6v-35.9l-32.5-25L65.3,108.6z M112.2,55.7H97.8
	v7.1h14.3L112.2,55.7z M65.2,37.4v18.3h8.6v-9.8h48v47.2l7.9,6.1h0.7V37.4H65.2z M97.8,77.1h14.3v-7.1H97.8V77.1z"/>
</svg>
